<svg width="18" height="32" viewBox="0 0 18 32" fill="none" xmlns="http://www.w3.org/2000/svg">
<path d="M6.3021 22.9445V22.761C6.3225 20.8133 6.52645 19.2632 6.91396 18.1109C7.30147 16.9586 7.85214 16.0255 8.56597 15.3117C9.2798 14.5978 10.1364 13.9401 11.1358 13.3384C11.7374 12.9713 12.2779 12.5379 12.7572 12.0382C13.2365 11.5284 13.6138 10.942 13.8891 10.2792C14.1746 9.61632 14.3174 8.88209 14.3174 8.07648C14.3174 7.07712 14.0829 6.21033 13.6138 5.4761C13.1447 4.74187 12.5175 4.17591 11.7323 3.7782C10.9471 3.3805 10.0752 3.18164 9.11663 3.18164C8.28043 3.18164 7.47482 3.355 6.69981 3.70172C5.92479 4.04844 5.27725 4.59401 4.75717 5.33843C4.23709 6.08286 3.93627 7.05672 3.85468 8.26004H0C0.0815807 6.52645 0.530274 5.0427 1.34608 3.8088C2.17208 2.57489 3.25813 1.63161 4.60421 0.978967C5.96048 0.326322 7.46463 0 9.11663 0C10.9114 0 12.4716 0.356915 13.7973 1.07074C15.1332 1.78458 16.1632 2.76354 16.8872 4.00765C17.6214 5.25175 17.9885 6.66922 17.9885 8.26004C17.9885 9.38177 17.8152 10.3964 17.4685 11.304C17.1319 12.2116 16.6424 13.0223 16 13.7361C15.3678 14.45 14.6029 15.0822 13.7055 15.6329C12.8082 16.1938 12.0892 16.7852 11.5488 17.4073C11.0083 18.0191 10.6157 18.7482 10.3709 19.5946C10.1262 20.441 9.99363 21.4965 9.97323 22.761V22.9445H6.3021ZM8.26004 32C7.50542 32 6.85787 31.7298 6.3174 31.1893C5.77693 30.6488 5.50669 30.0013 5.50669 29.2467C5.50669 28.492 5.77693 27.8445 6.3174 27.304C6.85787 26.7635 7.50542 26.4933 8.26004 26.4933C9.01466 26.4933 9.66221 26.7635 10.2027 27.304C10.7431 27.8445 11.0134 28.492 11.0134 29.2467C11.0134 29.7463 10.8859 30.2052 10.631 30.6233C10.3862 31.0414 10.0548 31.3779 9.63671 31.6329C9.22881 31.8776 8.76992 32 8.26004 32Z" fill="#252E48"/>
</svg>
