<svg width="20" height="20" viewBox="0 0 20 20" fill="none" xmlns="http://www.w3.org/2000/svg">
<path d="M19.9876 7.875L17.2256 0.176639C17.2077 0.125126 17.1716 0.0801322 17.1228 0.0483199C17.0739 0.0165075 17.0148 -0.000432379 16.9543 8.38841e-06H14.5948C14.4698 8.38841e-06 14.3631 0.0706605 14.3235 0.176639L11.5403 7.875C11.5311 7.89946 11.525 7.92664 11.525 7.95381C11.525 8.0924 11.6531 8.20653 11.8085 8.20653H13.5279C13.6559 8.20653 13.7656 8.13044 13.8022 8.02174L14.3357 6.34783H17.0488L17.5762 8.01903C17.6098 8.12772 17.7225 8.20381 17.8506 8.20381H19.7162C19.7467 8.20381 19.7742 8.20109 19.8016 8.19294C19.8748 8.1712 19.9327 8.12772 19.9693 8.06794C20.0028 8.00816 20.0089 7.94022 19.9876 7.875V7.875ZM14.6131 4.93207L15.613 1.75544H15.8051L16.7836 4.93207H14.6131V4.93207ZM18.9877 18.3261H15.0368V18.3152L19.0791 13.1821C19.1126 13.1386 19.1309 13.0897 19.1309 13.0353V12.0462C19.1309 11.9076 19.0029 11.7935 18.8474 11.7935H12.6286C12.4731 11.7935 12.3451 11.9076 12.3451 12.0462V13.2147C12.3451 13.3533 12.4731 13.4674 12.6286 13.4674H16.366V13.4783L12.3085 18.6114C12.2746 18.6544 12.2565 18.7056 12.2567 18.7582V19.7473C12.2567 19.8859 12.3847 20 12.5402 20H18.9846C19.1401 20 19.2681 19.8859 19.2681 19.7473V18.5788C19.2685 18.5457 19.2616 18.5129 19.2476 18.4823C19.2337 18.4517 19.2131 18.4238 19.1871 18.4003C19.161 18.3768 19.1299 18.3581 19.0957 18.3454C19.0615 18.3326 19.0247 18.3261 18.9877 18.3261V18.3261ZM7.07426 15.163H4.75743V0.760878C4.75743 0.641312 4.64769 0.543486 4.51355 0.543486H2.80642C2.67228 0.543486 2.56254 0.641312 2.56254 0.760878V15.163H0.245706C0.0414591 15.163 -0.0743826 15.375 0.0536529 15.5163L3.46793 19.3723C3.49074 19.3983 3.51989 19.4193 3.55317 19.4337C3.58644 19.4482 3.62297 19.4557 3.65998 19.4557C3.697 19.4557 3.73353 19.4482 3.7668 19.4337C3.80008 19.4193 3.82923 19.3983 3.85204 19.3723L7.26632 15.5163C7.3913 15.375 7.27851 15.163 7.07426 15.163Z" fill="white"/>
</svg>
