<svg width="37" height="24" viewBox="0 0 37 24" fill="none" xmlns="http://www.w3.org/2000/svg">
<mask id="path-1-outside-1_89_2327" maskUnits="userSpaceOnUse" x="0" y="0" width="37" height="24" fill="black">
<rect fill="white" width="37" height="24"/>
<path fill-rule="evenodd" clip-rule="evenodd" d="M25.8151 11.1722C25.8151 11.4924 25.7989 11.8087 25.7671 12.1204C26.7461 11.2616 28.0246 10.7417 29.4235 10.7417C32.5033 10.7417 35 13.262 35 16.3709C35 19.4797 32.5033 22 29.4235 22H7.74526C7.74369 22 7.74213 22 7.74056 22C7.73899 22 7.73742 22 7.73585 22H7.70775V21.9999C4.55243 21.9821 2 19.3946 2 16.2053C2 13.0277 4.5337 10.4475 7.67299 10.411C8.05628 5.70146 11.9642 2 16.7286 2C21.747 2 25.8151 6.10653 25.8151 11.1722Z"/>
</mask>
<path d="M25.7671 12.1204L23.7774 11.918L23.2625 16.9782L27.0861 13.6239L25.7671 12.1204ZM7.70775 22H5.70775V24H7.70775V22ZM7.70775 21.9999H9.70775V20.0112L7.71905 19.9999L7.70775 21.9999ZM7.67299 10.411L7.69627 12.4109L9.51857 12.3896L9.6664 10.5732L7.67299 10.411ZM27.7569 12.3229C27.7954 11.944 27.8151 11.5601 27.8151 11.1722H23.8151C23.8151 11.4246 23.8023 11.6734 23.7774 11.918L27.7569 12.3229ZM29.4235 8.74172C27.5189 8.74172 25.7764 9.4518 24.4482 10.617L27.0861 13.6239C27.7158 13.0714 28.5303 12.7417 29.4235 12.7417V8.74172ZM37 16.3709C37 12.1751 33.6255 8.74172 29.4235 8.74172V12.7417C31.3811 12.7417 33 14.3488 33 16.3709H37ZM29.4235 24C33.6255 24 37 20.5666 37 16.3709H33C33 18.3929 31.3811 20 29.4235 20V24ZM29.4235 20H7.74526V24H29.4235V20ZM7.74056 24C7.74205 24 7.74344 24 7.74413 24C7.74454 24 7.74478 24 7.745 24C7.7452 24 7.74527 24 7.74526 24V20C7.74377 20 7.74238 20 7.74169 20C7.74128 20 7.74104 20 7.74082 20C7.74062 20 7.74055 20 7.74056 20V24ZM7.73585 24C7.73584 24 7.73591 24 7.73611 24C7.73633 24 7.73657 24 7.73699 24C7.73767 24 7.73906 24 7.74056 24V20C7.74056 20 7.74049 20 7.74029 20C7.74007 20 7.73983 20 7.73942 20C7.73873 20 7.73734 20 7.73585 20V24ZM7.73585 20H7.70775V24H7.73585V20ZM9.70775 22V21.9999H5.70775V22H9.70775ZM0 16.2053C0 20.4778 3.42409 23.9757 7.69646 23.9999L7.71905 19.9999C5.68076 19.9884 4 18.3114 4 16.2053H0ZM7.64971 8.41113C3.39892 8.46061 0 11.9484 0 16.2053H4C4 14.1071 5.66848 12.4345 7.69627 12.4109L7.64971 8.41113ZM16.7286 0C10.8984 0 6.14539 4.52521 5.67958 10.2488L9.6664 10.5732C9.96716 6.87771 13.03 4 16.7286 4V0ZM27.8151 11.1722C27.8151 5.0197 22.8692 0 16.7286 0V4C20.6247 4 23.8151 7.19335 23.8151 11.1722H27.8151Z" fill="url(#paint0_linear_89_2327)" mask="url(#path-1-outside-1_89_2327)"/>
<defs>
<linearGradient id="paint0_linear_89_2327" x1="17.4297" y1="-4.92572" x2="28.5888" y2="30.126" gradientUnits="userSpaceOnUse">
<stop stop-color="#1D50B5"/>
<stop offset="0.713542" stop-color="#1D50B5"/>
</linearGradient>
</defs>
</svg>
