<svg width="20" height="24" viewBox="0 0 20 24" fill="none" xmlns="http://www.w3.org/2000/svg">
<path d="M10.0739 1.67048L4.63678 11.2207M10.0739 1.67048L4.63678 11.2207M10.0739 1.67048C10.3066 1.26171 10.7422 1 11.2243 1H17.6741C18.7243 1 19.3116 2.13169 18.8266 2.98977L16.2929 7.47304M10.0739 1.67048L16.2929 7.47304M4.63678 11.2207C4.14826 12.0788 4.73509 13.2141 5.78718 13.2141H6.42438M4.63678 11.2207L6.42438 13.2141M16.2929 7.47304H16.9199C18.1622 7.47304 18.6715 8.97714 17.8285 9.77476L4.23682 22.6348M16.2929 7.47304L4.23682 22.6348M4.23682 22.6348C3.68487 23.1571 2.94655 23.0624 2.50249 22.7069C2.06286 22.355 1.81237 21.6735 2.16592 21.025L6.42438 13.2141M4.23682 22.6348L6.42438 13.2141M2.86225 21.1821C2.86247 21.1818 2.86269 21.1816 2.86291 21.1814L2.86225 21.1821ZM17.6741 3C17.6735 3 17.6728 3 17.6722 3H17.6741Z" stroke="url(#paint0_linear_89_2333)" stroke-width="2"/>
<defs>
<linearGradient id="paint0_linear_89_2333" x1="6.6048" y1="-3.72615" x2="14.9714" y2="30.304" gradientUnits="userSpaceOnUse">
<stop offset="0.14688" stop-color="#1D50B5"/>
<stop offset="0.938214" stop-color="#1D50B5"/>
</linearGradient>
</defs>
</svg>
