<svg width="252" height="193" viewBox="0 0 252 193" fill="none" xmlns="http://www.w3.org/2000/svg">
<g clip-path="url(#clip0_87_2008)">
<circle cx="205.196" cy="31.2522" r="82" transform="rotate(78.71 205.196 31.2522)" fill="url(#paint0_radial_87_2008)"/>
<g filter="url(#filter0_f_87_2008)">
<circle cx="205.196" cy="31.2521" r="82" transform="rotate(77.2721 205.196 31.2521)" fill="url(#paint1_radial_87_2008)"/>
</g>
<g filter="url(#filter1_f_87_2008)">
<circle cx="205.196" cy="31.2521" r="82" transform="rotate(81.2174 205.196 31.2521)" fill="url(#paint2_radial_87_2008)"/>
</g>
<ellipse cx="175.593" cy="30.511" rx="94.8963" ry="108.657" transform="rotate(120.644 175.593 30.511)" fill="url(#paint3_radial_87_2008)"/>
<circle cx="205.196" cy="31.2522" r="82" transform="rotate(78.71 205.196 31.2522)" fill="url(#paint4_radial_87_2008)" fill-opacity="0.12"/>
<circle cx="205.196" cy="31.2522" r="82" transform="rotate(78.71 205.196 31.2522)" fill="url(#paint5_radial_87_2008)"/>
</g>
<g filter="url(#filter2_d_87_2008)">
<path fill-rule="evenodd" clip-rule="evenodd" d="M4 108C4 149.882 37.4386 183.955 79.075 184.976V185H81H189.442C221.336 185 247.192 159.144 247.192 127.25C247.192 95.3556 221.336 69.5 189.442 69.5C175.86 69.5 163.374 74.1883 153.512 82.0349C142.858 52.2843 114.415 31 81 31C38.4741 31 4 65.4741 4 108Z" fill="url(#paint6_linear_87_2008)" fill-opacity="0.8"/>
<path fill-rule="evenodd" clip-rule="evenodd" d="M4 108C4 149.882 37.4386 183.955 79.075 184.976V185H81H189.442C221.336 185 247.192 159.144 247.192 127.25C247.192 95.3556 221.336 69.5 189.442 69.5C175.86 69.5 163.374 74.1883 153.512 82.0349C142.858 52.2843 114.415 31 81 31C38.4741 31 4 65.4741 4 108Z" fill="url(#paint7_linear_87_2008)" fill-opacity="0.2"/>
</g>
<defs>
<filter id="filter0_f_87_2008" x="107.178" y="-66.7656" width="196.036" height="196.036" filterUnits="userSpaceOnUse" color-interpolation-filters="sRGB">
<feFlood flood-opacity="0" result="BackgroundImageFix"/>
<feBlend mode="normal" in="SourceGraphic" in2="BackgroundImageFix" result="shape"/>
<feGaussianBlur stdDeviation="8" result="effect1_foregroundBlur_87_2008"/>
</filter>
<filter id="filter1_f_87_2008" x="107.184" y="-66.7595" width="196.023" height="196.023" filterUnits="userSpaceOnUse" color-interpolation-filters="sRGB">
<feFlood flood-opacity="0" result="BackgroundImageFix"/>
<feBlend mode="normal" in="SourceGraphic" in2="BackgroundImageFix" result="shape"/>
<feGaussianBlur stdDeviation="8" result="effect1_foregroundBlur_87_2008"/>
</filter>
<filter id="filter2_d_87_2008" x="0" y="31" width="251.192" height="162" filterUnits="userSpaceOnUse" color-interpolation-filters="sRGB">
<feFlood flood-opacity="0" result="BackgroundImageFix"/>
<feColorMatrix in="SourceAlpha" type="matrix" values="0 0 0 0 0 0 0 0 0 0 0 0 0 0 0 0 0 0 127 0" result="hardAlpha"/>
<feOffset dy="4"/>
<feGaussianBlur stdDeviation="2"/>
<feColorMatrix type="matrix" values="0 0 0 0 0 0 0 0 0 0 0 0 0 0 0 0 0 0 0.25 0"/>
<feBlend mode="screen" in2="BackgroundImageFix" result="effect1_dropShadow_87_2008"/>
<feBlend mode="normal" in="SourceGraphic" in2="effect1_dropShadow_87_2008" result="shape"/>
</filter>
<radialGradient id="paint0_radial_87_2008" cx="0" cy="0" r="1" gradientUnits="userSpaceOnUse" gradientTransform="translate(238.696 -64.2478) rotate(116.287) scale(184.031)">
<stop offset="0.142953" stop-color="#F43023"/>
<stop offset="0.531374" stop-color="#F98029"/>
<stop offset="0.84375" stop-color="#FDC912"/>
<stop offset="1" stop-color="#FFEF04"/>
</radialGradient>
<radialGradient id="paint1_radial_87_2008" cx="0" cy="0" r="1" gradientUnits="userSpaceOnUse" gradientTransform="translate(330.696 -44.7479) rotate(142.73) scale(157.704)">
<stop offset="0.640109" stop-color="#F43023"/>
<stop offset="0.81709" stop-color="#F64B25" stop-opacity="0.657723"/>
<stop offset="0.95813" stop-color="#F98029" stop-opacity="0"/>
<stop offset="1" stop-color="#FAE500" stop-opacity="0"/>
</radialGradient>
<radialGradient id="paint2_radial_87_2008" cx="0" cy="0" r="1" gradientUnits="userSpaceOnUse" gradientTransform="translate(156.196 -86.2479) rotate(72.5252) scale(141.532)">
<stop offset="0.610933" stop-color="#FF1000"/>
<stop offset="0.767948" stop-color="#F64B25" stop-opacity="0.657723"/>
<stop offset="0.850078" stop-color="#F98029" stop-opacity="0"/>
<stop offset="1" stop-color="#F1DD00" stop-opacity="0"/>
</radialGradient>
<radialGradient id="paint3_radial_87_2008" cx="0" cy="0" r="1" gradientUnits="userSpaceOnUse" gradientTransform="translate(118.887 -125.186) rotate(74.6266) scale(185.525 165.571)">
<stop offset="0.610933" stop-color="#FF1000"/>
<stop offset="0.767948" stop-color="#F64B25" stop-opacity="0.657723"/>
<stop offset="0.850078" stop-color="#F98029" stop-opacity="0"/>
<stop offset="1" stop-color="#F1DD00" stop-opacity="0"/>
</radialGradient>
<radialGradient id="paint4_radial_87_2008" cx="0" cy="0" r="1" gradientUnits="userSpaceOnUse" gradientTransform="translate(235.182 -24.7619) rotate(120.594) scale(149.297)">
<stop offset="0.177083" stop-color="#EC4530"/>
<stop offset="0.46875" stop-color="#FEEA45"/>
<stop offset="0.986285" stop-color="#FFFAAF"/>
</radialGradient>
<radialGradient id="paint5_radial_87_2008" cx="0" cy="0" r="1" gradientUnits="userSpaceOnUse" gradientTransform="translate(235.182 -24.7619) rotate(120.291) scale(147.675)">
<stop stop-color="#1F1A08" stop-opacity="0.24"/>
<stop offset="0.848853" stop-color="#FFEA1E" stop-opacity="0"/>
<stop offset="0.989583" stop-color="#E9DD2C"/>
</radialGradient>
<linearGradient id="paint6_linear_87_2008" x1="200.35" y1="57.95" x2="151.904" y2="118.267" gradientUnits="userSpaceOnUse">
<stop stop-color="white"/>
<stop offset="1" stop-color="white" stop-opacity="0"/>
</linearGradient>
<linearGradient id="paint7_linear_87_2008" x1="22.5" y1="78" x2="206" y2="164.5" gradientUnits="userSpaceOnUse">
<stop stop-color="#1D50B5"/>
<stop offset="0.598958" stop-color="#3981EE"/>
<stop offset="1" stop-color="white" stop-opacity="0.71"/>
</linearGradient>
<clipPath id="clip0_87_2008">
<rect x="140.825" y="127.736" width="108" height="108" rx="54" transform="rotate(-101.29 140.825 127.736)" fill="white"/>
</clipPath>
</defs>
</svg>
