<svg width="21" height="14" viewBox="0 0 21 14" fill="none" xmlns="http://www.w3.org/2000/svg">
<path d="M10.0542 4C9.26017 4.00524 8.50015 4.32299 7.93867 4.88447C7.37719 5.44595 7.05944 6.20597 7.0542 7C7.0542 8.642 8.4122 10 10.0542 10C11.6952 10 13.0542 8.642 13.0542 7C13.0542 5.359 11.6952 4 10.0542 4Z" fill="#252E48"/>
<path d="M10.054 0C2.421 0 0.127 6.617 0.106 6.684L0 7L0.105 7.316C0.127 7.383 2.421 14 10.054 14C17.687 14 19.981 7.383 20.002 7.316L20.108 7L20.003 6.684C19.981 6.617 17.687 0 10.054 0ZM10.054 12C4.703 12 2.63 8.154 2.128 7C2.632 5.842 4.706 2 10.054 2C15.405 2 17.478 5.846 17.98 7C17.476 8.158 15.402 12 10.054 12V12Z" fill="#252E48"/>
</svg>
