<svg width="19" height="20" viewBox="0 0 19 20" fill="none" xmlns="http://www.w3.org/2000/svg">
<path fill-rule="evenodd" clip-rule="evenodd" d="M9.48956 0C9.26658 0 9.08581 0.180766 9.08581 0.403751V1.75804L8.16158 0.529306C8.02478 0.347433 7.77216 0.318113 7.59734 0.463817C7.42252 0.609521 7.3917 0.875074 7.5285 1.05695L9.08581 3.12734V3.90801L8.16159 2.67929C8.02479 2.49742 7.77217 2.4681 7.59735 2.6138C7.42253 2.75951 7.3917 3.02506 7.52851 3.20693L9.08581 5.27732V8.94734L6.50194 6.22748L6.21289 3.60933C6.18715 3.37618 5.98672 3.20914 5.76523 3.23624C5.54374 3.26333 5.38505 3.4743 5.41079 3.70746L5.58211 5.25923L5.05765 4.70717L4.7686 2.08905C4.74286 1.85589 4.54244 1.68885 4.32095 1.71595C4.09945 1.74304 3.94076 1.95402 3.9665 2.18717L4.13782 3.73893L3.36093 2.92115C3.20325 2.75517 2.94761 2.75517 2.78994 2.92115C2.63227 3.08712 2.63227 3.35621 2.78994 3.52219L3.58555 4.35967L2.07786 4.17523C1.85637 4.14814 1.65595 4.31518 1.6302 4.54833C1.60446 4.78148 1.76315 4.99246 1.98465 5.01955L4.50538 5.32791L5.02982 5.87996L3.52215 5.69552C3.30065 5.66843 3.10023 5.83547 3.07449 6.06862C3.04875 6.30177 3.20744 6.51274 3.42893 6.53984L5.94965 6.8482L8.52966 9.564H4.84586L2.88645 7.93094C2.70956 7.78351 2.45395 7.81318 2.31553 7.9972C2.17712 8.18123 2.2083 8.44992 2.38519 8.59734L3.54503 9.564H2.80335L0.843931 7.93094C0.667042 7.78351 0.411436 7.81318 0.273017 7.9972C0.134599 8.18123 0.165784 8.44992 0.342673 8.59734L1.50251 9.564H0.425C0.190279 9.564 0 9.75428 0 9.989C0 10.2237 0.19028 10.414 0.425001 10.414H1.52889L0.342673 11.4026C0.165785 11.5501 0.134599 11.8188 0.273017 12.0028C0.411436 12.1868 0.667042 12.2165 0.843931 12.069L2.82973 10.414H3.5714L2.38519 11.4026C2.2083 11.5501 2.17712 11.8188 2.31553 12.0028C2.45395 12.1868 2.70956 12.2165 2.88645 12.069L4.87224 10.414H8.52091L5.91612 13.1559L3.42884 13.4602C3.20734 13.4873 3.04865 13.6982 3.07439 13.9314C3.10013 14.1645 3.30056 14.3316 3.52205 14.3045L4.99629 14.1241L4.47185 14.6762L1.98455 14.9804C1.76306 15.0075 1.60437 15.2185 1.63011 15.4517C1.65585 15.6848 1.85627 15.8519 2.07777 15.8248L3.55202 15.6444L2.77507 16.4623C2.6174 16.6282 2.6174 16.8973 2.77507 17.0633C2.93274 17.2293 3.18838 17.2293 3.34606 17.0633L4.14166 16.2258L3.96645 17.8128C3.94071 18.046 4.0994 18.257 4.3209 18.2841C4.54239 18.3111 4.74281 18.1441 4.76856 17.911L5.0615 15.2576L5.58595 14.7055L5.41074 16.2925C5.385 16.5257 5.54369 16.7367 5.76518 16.7638C5.98668 16.7909 6.1871 16.6238 6.21284 16.3907L6.50578 13.7373L9.08581 11.0215V14.8991L7.52851 16.9695C7.3917 17.1513 7.42253 17.4169 7.59735 17.5626C7.77217 17.7083 8.02479 17.679 8.16159 17.4971L9.08581 16.2684V17.0491L7.52851 19.1195C7.3917 19.3013 7.42253 19.5669 7.59735 19.7126C7.77217 19.8583 8.02479 19.829 8.16159 19.6471L9.08581 18.4184V19.5962C9.08581 19.8192 9.26658 20 9.48956 20C9.71255 20 9.89331 19.8192 9.89331 19.5962V18.3906L10.8384 19.6471C10.9752 19.829 11.2278 19.8583 11.4026 19.7126C11.5775 19.5669 11.6083 19.3013 11.4715 19.1195L9.89331 17.0213V16.2406L10.8384 17.4971C10.9752 17.679 11.2278 17.7083 11.4026 17.5626C11.5775 17.4169 11.6083 17.1513 11.4715 16.9695L9.89331 14.8713V10.9994L12.3758 13.6125L12.6687 16.2659C12.6944 16.499 12.8949 16.6661 13.1164 16.639C13.3379 16.6119 13.4965 16.4009 13.4708 16.1678L13.2956 14.5808L13.82 15.1328L14.113 17.7862C14.1387 18.0193 14.3391 18.1864 14.5606 18.1593C14.7821 18.1322 14.9408 17.9212 14.9151 17.688L14.7399 16.101L15.654 17.0633C15.8117 17.2293 16.0673 17.2293 16.225 17.0633C16.3826 16.8973 16.3826 16.6282 16.225 16.4622L15.3295 15.5196L16.8038 15.7C17.0252 15.7271 17.2257 15.56 17.2514 15.3269C17.2772 15.0937 17.1185 14.8828 16.897 14.8557L14.4097 14.5514L13.8852 13.9994L15.3595 14.1797C15.581 14.2068 15.7814 14.0398 15.8071 13.8066C15.8329 13.5735 15.6742 13.3625 15.4527 13.3354L12.9654 13.0311L10.4791 10.414H13.9601L15.9459 12.069C16.1228 12.2165 16.3784 12.1868 16.5168 12.0028C16.6553 11.8188 16.6241 11.5501 16.4472 11.4026L15.261 10.414H16.0027L17.9884 12.069C18.1653 12.2165 18.4209 12.1868 18.5594 12.0028C18.6978 11.8188 18.6666 11.5501 18.4897 11.4026L17.3035 10.414H18.575C18.8097 10.414 19 10.2237 19 9.989C19 9.75428 18.8097 9.564 18.575 9.564H17.3299L18.4897 8.59735C18.6666 8.44992 18.6978 8.18123 18.5594 7.9972C18.4209 7.81318 18.1653 7.78351 17.9884 7.93094L16.029 9.564H15.2873L16.4472 8.59734C16.6241 8.44992 16.6553 8.18123 16.5168 7.9972C16.3784 7.81318 16.1228 7.78351 15.9459 7.93094L13.9865 9.564H10.4704L12.9319 6.97297L15.4526 6.6646C15.6741 6.63751 15.8328 6.42654 15.807 6.19339C15.7813 5.96023 15.5809 5.79319 15.3594 5.82029L13.8517 6.00472L14.3761 5.45268L16.8969 5.14432C17.1184 5.11723 17.2771 4.90625 17.2513 4.6731C17.2256 4.43995 17.0252 4.27291 16.8037 4.3L15.296 4.48444L16.2101 3.52221C16.3678 3.35623 16.3678 3.08714 16.2101 2.92116C16.0524 2.75519 15.7968 2.75519 15.6391 2.92116L14.7437 3.8637L14.915 2.31194C14.9408 2.07878 14.7821 1.86781 14.5606 1.84072C14.3391 1.81362 14.1387 1.98066 14.1129 2.21382L13.8239 4.83194L13.2994 5.38399L13.4708 3.83222C13.4965 3.59907 13.3378 3.3881 13.1163 3.361C12.8948 3.33391 12.6944 3.50095 12.6686 3.7341L12.3796 6.35223L9.89331 8.96937V5.30506L11.4715 3.20693C11.6083 3.02506 11.5775 2.75951 11.4026 2.6138C11.2278 2.4681 10.9752 2.49742 10.8384 2.67929L9.89331 3.93576V3.15507L11.4715 1.05695C11.6083 0.875074 11.5775 0.609521 11.4026 0.463817C11.2278 0.318113 10.9752 0.347433 10.8384 0.529306L9.89331 1.78576V0.40375C9.89331 0.180765 9.71255 0 9.48956 0Z" fill="url(#paint0_linear_89_2331)"/>
<defs>
<linearGradient id="paint0_linear_89_2331" x1="16.5196" y1="1.65" x2="2.20652" y2="14.9157" gradientUnits="userSpaceOnUse">
<stop stop-color="#1D50B5"/>
<stop offset="1" stop-color="#1D50B5"/>
</linearGradient>
</defs>
</svg>
