<svg width="19" height="20" viewBox="0 0 19 20" fill="none" xmlns="http://www.w3.org/2000/svg">
<g filter="url(#filter0_b_89_2328)">
<path d="M9.49989 17.087C13.2935 17.087 16.2825 13.8651 16.2825 10C16.2825 6.13493 13.2935 2.91304 9.49989 2.91304C5.70625 2.91304 2.71729 6.13493 2.71729 10C2.71729 13.8651 5.70625 17.087 9.49989 17.087Z" stroke="#1D50B5" stroke-width="2"/>
<path fill-rule="evenodd" clip-rule="evenodd" d="M9.49999 0C9.21484 0 8.98369 0.231157 8.98369 0.516304V2.30978C8.98369 2.59493 9.21484 2.82609 9.49999 2.82609C9.78514 2.82609 10.0163 2.59493 10.0163 2.30978V0.516304C10.0163 0.231157 9.78514 0 9.49999 0ZM9.49999 17.1739C9.21484 17.1739 8.98368 17.4051 8.98368 17.6902V19.4837C8.98368 19.7688 9.21484 20 9.49999 20C9.78514 20 10.0163 19.7688 10.0163 19.4837V17.6902C10.0163 17.4051 9.78514 17.1739 9.49999 17.1739ZM13.5343 1.53515C13.675 1.27715 13.9923 1.19224 14.2431 1.34549C14.4939 1.49874 14.5831 1.83212 14.4423 2.09011L13.6233 3.5918C13.4826 3.8498 13.1653 3.93471 12.9145 3.78146C12.6637 3.62821 12.5745 3.29483 12.7153 3.03683L13.5343 1.53515ZM6.08549 16.2185C5.83474 16.0653 5.51739 16.1502 5.37668 16.4082L4.55765 17.9099C4.41693 18.1679 4.50614 18.5013 4.75689 18.6545C5.00764 18.8078 5.32499 18.7228 5.4657 18.4648L6.28474 16.9632C6.42545 16.7052 6.33624 16.3718 6.08549 16.2185ZM17.0294 4.80461C17.2782 4.65258 17.593 4.73682 17.7326 4.99278C17.8722 5.24873 17.7837 5.57947 17.5349 5.7315L16.1 6.60843C15.8512 6.76046 15.5364 6.67621 15.3968 6.42026C15.2572 6.16431 15.3457 5.83357 15.5944 5.68154L17.0294 4.80461ZM3.60322 13.5797C3.46361 13.3238 3.14876 13.2395 2.89999 13.3916L1.46505 14.2685C1.21628 14.4205 1.12778 14.7513 1.26739 15.0072C1.407 15.2632 1.72184 15.3474 1.97062 15.1954L3.40555 14.3185C3.65433 14.1664 3.74283 13.8357 3.60322 13.5797ZM18.4565 9.45652C18.7567 9.45652 19 9.69984 19 10C19 10.3002 18.7567 10.5435 18.4565 10.5435H16.8587C16.5585 10.5435 16.3152 10.3002 16.3152 10C16.3152 9.69984 16.5585 9.45652 16.8587 9.45652H18.4565ZM2.68478 10C2.68478 9.69984 2.44146 9.45652 2.1413 9.45652H0.543478C0.243323 9.45652 1.18409e-08 9.69984 0 10C-1.18409e-08 10.3002 0.243323 10.5435 0.543478 10.5435H2.1413C2.44146 10.5435 2.68478 10.3002 2.68478 10ZM17.5349 14.2685C17.7837 14.4205 17.8722 14.7513 17.7326 15.0072C17.593 15.2632 17.2782 15.3474 17.0294 15.1954L15.5944 14.3185C15.3457 14.1664 15.2572 13.8357 15.3968 13.5797C15.5364 13.3238 15.8512 13.2395 16.1 13.3916L17.5349 14.2685ZM3.60322 6.42026C3.74282 6.16431 3.65433 5.83357 3.40555 5.68153L1.97062 4.80461C1.72184 4.65258 1.40699 4.73682 1.26739 4.99277C1.12778 5.24873 1.21628 5.57947 1.46505 5.7315L2.89999 6.60842C3.14876 6.76046 3.46361 6.67621 3.60322 6.42026ZM14.4423 17.9099C14.5831 18.1679 14.4939 18.5013 14.2431 18.6545C13.9923 18.8078 13.675 18.7228 13.5343 18.4648L12.7153 16.9632C12.5745 16.7052 12.6637 16.3718 12.9145 16.2185C13.1653 16.0653 13.4826 16.1502 13.6233 16.4082L14.4423 17.9099ZM6.08549 3.78145C6.33624 3.6282 6.42545 3.29482 6.28473 3.03683L5.4657 1.53514C5.32499 1.27714 5.00764 1.19223 4.75689 1.34548C4.50614 1.49873 4.41693 1.83211 4.55764 2.09011L5.37668 3.5918C5.51739 3.84979 5.83474 3.93471 6.08549 3.78145Z" fill="url(#paint0_linear_89_2328)"/>
</g>
<defs>
<filter id="filter0_b_89_2328" x="-4" y="-4" width="27" height="28" filterUnits="userSpaceOnUse" color-interpolation-filters="sRGB">
<feFlood flood-opacity="0" result="BackgroundImageFix"/>
<feGaussianBlur in="BackgroundImage" stdDeviation="2"/>
<feComposite in2="SourceAlpha" operator="in" result="effect1_backgroundBlur_89_2328"/>
<feBlend mode="normal" in="SourceGraphic" in2="effect1_backgroundBlur_89_2328" result="shape"/>
</filter>
<linearGradient id="paint0_linear_89_2328" x1="16.4701" y1="2.60869" x2="1.53204" y2="19.243" gradientUnits="userSpaceOnUse">
<stop stop-color="#1D50B5"/>
<stop offset="1" stop-color="#1D50B5"/>
</linearGradient>
</defs>
</svg>
