<svg width="24" height="20" viewBox="0 0 24 20" fill="none" xmlns="http://www.w3.org/2000/svg">
<path fill-rule="evenodd" clip-rule="evenodd" d="M16.9413 0.802469C16.9413 0.359278 17.2958 0 17.7332 0C19.7159 0 21.3198 1.63254 21.3198 3.64198C21.3198 5.65141 19.7159 7.28395 17.7332 7.28395H6.33503C5.89768 7.28395 5.54315 6.92467 5.54315 6.48148C5.54315 6.03829 5.89768 5.67901 6.33503 5.67901H17.7332C18.8374 5.67901 19.736 4.76897 19.736 3.64198C19.736 2.51498 18.8374 1.60494 17.7332 1.60494C17.2958 1.60494 16.9413 1.24566 16.9413 0.802469ZM0 10.0617C0 9.61854 0.354536 9.25926 0.791878 9.25926L16.3858 9.25926C16.8231 9.25926 17.1777 9.61854 17.1777 10.0617C17.1777 10.5049 16.8231 10.8642 16.3858 10.8642L0.791878 10.8642C0.354536 10.8642 0 10.5049 0 10.0617ZM18.1523 10.0617C18.1523 9.61854 18.5068 9.25926 18.9442 9.25926H22.3553C22.7927 9.25926 23.1472 9.61854 23.1472 10.0617C23.1472 10.5049 22.7927 10.8642 22.3553 10.8642H18.9442C18.5068 10.8642 18.1523 10.5049 18.1523 10.0617ZM1.21827 13.5185C1.21827 13.0753 1.57281 12.716 2.01015 12.716H5.42132C5.85866 12.716 6.2132 13.0753 6.2132 13.5185C6.2132 13.9617 5.85866 14.321 5.42132 14.321H2.01015C1.57281 14.321 1.21827 13.9617 1.21827 13.5185ZM7.30964 13.5185C7.30964 13.0753 7.66418 12.716 8.10152 12.716H20.4163C22.3982 12.716 24 14.3494 24 16.358C24 18.3667 22.3982 20 20.4163 20C19.979 20 19.6244 19.6407 19.6244 19.1975C19.6244 18.7543 19.979 18.3951 20.4163 18.3951C21.5181 18.3951 22.4162 17.4858 22.4162 16.358C22.4162 15.2302 21.5181 14.321 20.4163 14.321H8.10152C7.66418 14.321 7.30964 13.9617 7.30964 13.5185Z" fill="url(#paint0_linear_89_2329)"/>
<defs>
<linearGradient id="paint0_linear_89_2329" x1="20.8668" y1="1.65" x2="6.68893" y2="18.2485" gradientUnits="userSpaceOnUse">
<stop stop-color="#1D50B5"/>
<stop offset="1" stop-color="#1D50B5"/>
</linearGradient>
</defs>
</svg>
