<svg width="18" height="20" viewBox="0 0 18 20" fill="none" xmlns="http://www.w3.org/2000/svg">
<path d="M17.4891 7.875L15.0724 0.176639C15.0567 0.125126 15.0252 0.0801322 14.9824 0.0483199C14.9397 0.0165075 14.888 -0.000432379 14.835 8.38841e-06H12.7705C12.6611 8.38841e-06 12.5677 0.0706605 12.5331 0.176639L10.0977 7.875C10.0897 7.89946 10.0844 7.92664 10.0844 7.95381C10.0844 8.0924 10.1964 8.20653 10.3325 8.20653H11.8369C11.9489 8.20653 12.0449 8.13044 12.0769 8.02174L12.5437 6.34783H14.9177L15.3792 8.01903C15.4085 8.12772 15.5072 8.20381 15.6193 8.20381H17.2517C17.2784 8.20381 17.3024 8.20109 17.3264 8.19294C17.3904 8.1712 17.4411 8.12772 17.4731 8.06794C17.5024 8.00816 17.5078 7.94022 17.4891 7.875V7.875ZM12.7865 4.93207L13.6614 1.75544H13.8294L14.6857 4.93207H12.7865V4.93207ZM16.6142 18.3261H13.1572V18.3152L16.6942 13.1821C16.7236 13.1386 16.7396 13.0897 16.7396 13.0353V12.0462C16.7396 11.9076 16.6275 11.7935 16.4915 11.7935H11.05C10.914 11.7935 10.8019 11.9076 10.8019 12.0462V13.2147C10.8019 13.3533 10.914 13.4674 11.05 13.4674H14.3202V13.4783L10.7699 18.6114C10.7403 18.6544 10.7244 18.7056 10.7246 18.7582V19.7473C10.7246 19.8859 10.8366 20 10.9726 20H16.6115C16.7476 20 16.8596 19.8859 16.8596 19.7473V18.5788C16.86 18.5457 16.8539 18.5129 16.8417 18.4823C16.8295 18.4517 16.8115 18.4238 16.7887 18.4003C16.7659 18.3768 16.7387 18.3581 16.7087 18.3454C16.6788 18.3326 16.6467 18.3261 16.6142 18.3261V18.3261ZM3.37053 0.627726C3.35057 0.601743 3.32507 0.580729 3.29595 0.566278C3.26684 0.551826 3.23487 0.544316 3.20249 0.544316C3.1701 0.544316 3.13814 0.551826 3.10902 0.566278C3.07991 0.580729 3.0544 0.601743 3.03444 0.627726L0.0469463 4.4837C-0.0650848 4.62772 0.0362767 4.83696 0.214993 4.83696H2.24222V19.2391C2.24222 19.3587 2.33825 19.4565 2.45561 19.4565H3.94936C4.06673 19.4565 4.16275 19.3587 4.16275 19.2391V4.83696H6.18998C6.3687 4.83696 6.47006 4.62501 6.35803 4.4837L3.37053 0.627726Z" fill="white"/>
</svg>
